<mxfile host="65bd71144e">
    <diagram id="vBrbvHgQsbHm8saHVzU2" name="Page-1">
        <mxGraphModel dx="989" dy="460" grid="0" gridSize="10" guides="1" tooltips="1" connect="1" arrows="1" fold="1" page="1" pageScale="1" pageWidth="1654" pageHeight="2336" background="#ffffff" math="0" shadow="0">
            <root>
                <mxCell id="0"/>
                <mxCell id="1" parent="0"/>
                <mxCell id="41" style="edgeStyle=none;html=1;exitX=1;exitY=0.5;exitDx=0;exitDy=0;entryX=0;entryY=0.25;entryDx=0;entryDy=0;fillColor=#0050ef;strokeColor=#001DBC;fontColor=#474747;" edge="1" parent="1" source="16" target="8">
                    <mxGeometry relative="1" as="geometry">
                        <mxPoint x="609.9999999999998" y="255" as="sourcePoint"/>
                        <mxPoint x="747.4999999999998" y="222.5" as="targetPoint"/>
                        <Array as="points">
                            <mxPoint x="413" y="123"/>
                            <mxPoint x="650" y="123"/>
                        </Array>
                    </mxGeometry>
                </mxCell>
                <mxCell id="29" value="" style="edgeStyle=none;html=1;exitX=0;exitY=0.5;exitDx=0;exitDy=0;fillColor=#60a917;strokeColor=#2D7600;fontColor=#474747;" parent="1" source="12" edge="1">
                    <mxGeometry x="0.0045" y="-5" relative="1" as="geometry">
                        <mxPoint x="328" y="212" as="targetPoint"/>
                        <mxPoint as="offset"/>
                    </mxGeometry>
                </mxCell>
                <mxCell id="30" style="edgeStyle=none;html=1;exitX=1;exitY=0.75;exitDx=0;exitDy=0;entryX=0;entryY=0.75;entryDx=0;entryDy=0;fillColor=#0050ef;strokeColor=#001DBC;fontColor=#474747;" parent="1" source="12" target="8" edge="1">
                    <mxGeometry relative="1" as="geometry"/>
                </mxCell>
                <mxCell id="34" style="edgeStyle=none;html=1;entryX=1;entryY=0.25;entryDx=0;entryDy=0;exitX=0;exitY=0.5;exitDx=0;exitDy=0;fillColor=#a20025;strokeColor=#6F0000;fontColor=#474747;" parent="1" source="8" target="12" edge="1">
                    <mxGeometry relative="1" as="geometry"/>
                </mxCell>
                <mxCell id="35" style="edgeStyle=none;html=1;entryX=0;entryY=0.75;entryDx=0;entryDy=0;exitX=1;exitY=0.5;exitDx=0;exitDy=0;fillColor=#a20025;strokeColor=#6F0000;fontColor=#474747;" parent="1" source="18" target="12" edge="1">
                    <mxGeometry relative="1" as="geometry">
                        <mxPoint x="330" y="290" as="sourcePoint"/>
                    </mxGeometry>
                </mxCell>
                <mxCell id="36" style="edgeStyle=none;html=1;entryX=0;entryY=0.25;entryDx=0;entryDy=0;fillColor=#a20025;strokeColor=#6F0000;fontColor=#474747;" parent="1" target="11" edge="1">
                    <mxGeometry relative="1" as="geometry">
                        <mxPoint x="328" y="256" as="sourcePoint"/>
                    </mxGeometry>
                </mxCell>
                <mxCell id="37" style="edgeStyle=none;html=1;entryX=0;entryY=0.5;entryDx=0;entryDy=0;exitX=1;exitY=0.5;exitDx=0;exitDy=0;fillColor=#a20025;strokeColor=#6F0000;fontColor=#474747;" parent="1" source="24" target="11" edge="1">
                    <mxGeometry relative="1" as="geometry"/>
                </mxCell>
                <mxCell id="2" value="cart" style="whiteSpace=wrap;html=1;verticalAlign=top;container=0;sketch=1;curveFitting=1;jiggle=2;fontFamily=Handlee;fontSource=https%3A%2F%2Ffonts.googleapis.com%2Fcss%3Ffamily%3DHandlee;fontSize=24;fillColor=none;fontColor=#474747;strokeColor=#2D7600;fontStyle=1" parent="1" vertex="1">
                    <mxGeometry x="160" y="150" width="200" height="305" as="geometry"/>
                </mxCell>
                <mxCell id="16" value="context/CartContext" style="whiteSpace=wrap;html=1;container=0;sketch=1;curveFitting=1;jiggle=2;fillColor=none;fontColor=#474747;strokeColor=#2D7600;" parent="1" vertex="1">
                    <mxGeometry x="190" y="234" width="140" height="30" as="geometry"/>
                </mxCell>
                <mxCell id="25" value="components/ClearButton" style="whiteSpace=wrap;html=1;container=0;sketch=1;curveFitting=1;jiggle=2;fillColor=none;fontColor=#474747;strokeColor=#2D7600;" parent="1" vertex="1">
                    <mxGeometry x="190" y="358" width="140" height="32" as="geometry"/>
                </mxCell>
                <mxCell id="18" value="components/CartIcon" style="whiteSpace=wrap;html=1;container=0;sketch=1;curveFitting=1;jiggle=2;fillColor=none;fontColor=#474747;strokeColor=#2D7600;" parent="1" vertex="1">
                    <mxGeometry x="190" y="274" width="140" height="30" as="geometry"/>
                </mxCell>
                <mxCell id="24" value="components/BuyButton" style="whiteSpace=wrap;html=1;container=0;sketch=1;curveFitting=1;jiggle=2;fillColor=none;fontColor=#474747;strokeColor=#2D7600;" parent="1" vertex="1">
                    <mxGeometry x="190" y="314" width="140" height="30" as="geometry"/>
                </mxCell>
                <mxCell id="3" value="pages/index.js" style="whiteSpace=wrap;html=1;container=0;sketch=1;curveFitting=1;jiggle=2;fillColor=none;fontColor=#474747;strokeColor=#2D7600;" parent="1" vertex="1">
                    <mxGeometry x="190" y="190" width="140" height="30" as="geometry"/>
                </mxCell>
                <mxCell id="10" value="shell" style="whiteSpace=wrap;html=1;verticalAlign=top;container=0;sketch=1;curveFitting=1;jiggle=2;fontFamily=Handlee;fontSize=24;fontSource=https%3A%2F%2Ffonts.googleapis.com%2Fcss%3Ffamily%3DHandlee;fillColor=none;fontColor=#474747;strokeColor=#6F0000;fontStyle=1" parent="1" vertex="1">
                    <mxGeometry x="430" y="150" width="200" height="175" as="geometry"/>
                </mxCell>
                <mxCell id="11" value="pages/index.js" style="whiteSpace=wrap;html=1;container=0;sketch=1;curveFitting=1;jiggle=2;fillColor=none;fontColor=#474747;strokeColor=#6F0000;" parent="1" vertex="1">
                    <mxGeometry x="460" y="190" width="140" height="30" as="geometry"/>
                </mxCell>
                <mxCell id="12" value="components/Nav" style="whiteSpace=wrap;html=1;container=0;sketch=1;curveFitting=1;jiggle=2;fillColor=none;fontColor=#474747;strokeColor=#6F0000;" parent="1" vertex="1">
                    <mxGeometry x="460" y="230" width="140" height="30" as="geometry"/>
                </mxCell>
                <mxCell id="7" value="product" style="whiteSpace=wrap;html=1;verticalAlign=top;container=0;sketch=1;curveFitting=1;jiggle=2;fontFamily=Handlee;fontSource=https%3A%2F%2Ffonts.googleapis.com%2Fcss%3Ffamily%3DHandlee;fontSize=24;fillColor=none;fontColor=#474747;strokeColor=#001DBC;fontStyle=1" parent="1" vertex="1">
                    <mxGeometry x="710" y="150" width="200" height="130" as="geometry"/>
                </mxCell>
                <mxCell id="8" value="pages/index.js" style="whiteSpace=wrap;html=1;container=0;sketch=1;curveFitting=1;jiggle=2;fillColor=none;fontColor=#474747;strokeColor=#001DBC;" parent="1" vertex="1">
                    <mxGeometry x="737.5" y="190" width="145" height="30" as="geometry"/>
                </mxCell>
                <mxCell id="32" value="components/Tbd" style="whiteSpace=wrap;html=1;container=0;sketch=1;curveFitting=1;jiggle=2;fillColor=none;fontColor=#474747;strokeColor=#001DBC;" parent="1" vertex="1">
                    <mxGeometry x="737.5" y="230" width="145" height="30" as="geometry"/>
                </mxCell>
                <mxCell id="38" value="components/Tbd" style="whiteSpace=wrap;html=1;container=0;sketch=1;curveFitting=1;jiggle=2;fillColor=none;fontColor=#474747;strokeColor=#6F0000;" vertex="1" parent="1">
                    <mxGeometry x="460" y="274" width="140" height="30" as="geometry"/>
                </mxCell>
                <mxCell id="39" value="components/Tbd" style="whiteSpace=wrap;html=1;container=0;sketch=1;curveFitting=1;jiggle=2;fillColor=none;fontColor=#474747;strokeColor=#2D7600;" vertex="1" parent="1">
                    <mxGeometry x="190" y="398" width="140" height="32" as="geometry"/>
                </mxCell>
                <mxCell id="40" style="edgeStyle=none;html=1;exitX=1;exitY=0.25;exitDx=0;exitDy=0;entryX=0;entryY=0.25;entryDx=0;entryDy=0;fillColor=#a20025;strokeColor=#6F0000;fontColor=#474747;" edge="1" parent="1" source="3" target="12">
                    <mxGeometry relative="1" as="geometry">
                        <mxPoint x="340.0000000000002" y="259" as="sourcePoint"/>
                        <mxPoint x="469.9999999999998" y="215" as="targetPoint"/>
                    </mxGeometry>
                </mxCell>
            </root>
        </mxGraphModel>
    </diagram>
</mxfile>